{
  "accessors": [
    {
      "bufferView": 2,
      "componentType": 5126,
      "count": 182,
      "max": [
        -14.405171394348145,
        -9.8158473968505859,
        10.088312149047852
      ],
      "min": [
        -20.798873901367188,
        -14.903749465942383,
        -2.86769700050354
      ],
      "type": "VEC3"
    },
    {
      "bufferView": 2,
      "byteOffset": 2184,
      "componentType": 5126,
      "count": 182,
      "max": [
        0.99871379137039185,
        0.99829763174057007,
        0.99999922513961792
      ],
      "min": [
        -0.99977058172225952,
        -0.99829763174057007,
        -1
      ],
      "type": "VEC3"
    },
    {
      "bufferView": 3,
      "componentType": 5126,
      "count": 182,
      "max": [
        0.9999992847442627,
        1,
        0.99086403846740723,
        -1
      ],
      "min": [
        -0.99884134531021118,
        -1,
        -0.95779025554656982,
        -1
      ],
      "type": "VEC4"
    },
    {
      "bufferView": 1,
      "componentType": 5126,
      "count": 182,
      "max": [
        0.98788601160049438,
        0.98812097311019897
      ],
      "min": [
        0.06350100040435791,
        0.0081519996747374535
      ],
      "type": "VEC2"
    },
    {
      "bufferView": 0,
      "componentType": 5125,
      "count": 312,
      "max": [
        181
      ],
      "min": [
        0
      ],
      "type": "SCALAR"
    },
    {
      "bufferView": 2,
      "byteOffset": 4368,
      "componentType": 5126,
      "count": 106,
      "max": [
        -14.320197105407715,
        -2.3384358882904053,
        8.8893365859985352
      ],
      "min": [
        -19.055698394775391,
        -7.1562800407409668,
        -2.86769700050354
      ],
      "type": "VEC3"
    },
    {
      "bufferView": 2,
      "byteOffset": 5640,
      "componentType": 5126,
      "count": 106,
      "max": [
        0.99959021806716919,
        0.99932289123535156,
        0.99999988079071045
      ],
      "min": [
        -1,
        -0.99932265281677246,
        -1
      ],
      "type": "VEC3"
    },
    {
      "bufferView": 3,
      "byteOffset": 2912,
      "componentType": 5126,
      "count": 106,
      "max": [
        1,
        1,
        0.91436684131622314,
        -1
      ],
      "min": [
        -0.99481689929962158,
        -1,
        -0.98014885187149048,
        -1
      ],
      "type": "VEC4"
    },
    {
      "bufferView": 1,
      "byteOffset": 1456,
      "componentType": 5126,
      "count": 106,
      "max": [
        0.99124997854232788,
        0.98597800731658936
      ],
      "min": [
        0.0081519996747374535,
        0.0081519996747374535
      ],
      "type": "VEC2"
    },
    {
      "bufferView": 0,
      "byteOffset": 1248,
      "componentType": 5125,
      "count": 177,
      "max": [
        105
      ],
      "min": [
        0
      ],
      "type": "SCALAR"
    },
    {
      "bufferView": 2,
      "byteOffset": 6912,
      "componentType": 5126,
      "count": 211,
      "max": [
        -8.3254680633544922,
        -18.64155387878418,
        3.3650710582733154
      ],
      "min": [
        -12.683095932006836,
        -22.963924407958984,
        -2.86769700050354
      ],
      "type": "VEC3"
    },
    {
      "bufferView": 2,
      "byteOffset": 9444,
      "componentType": 5126,
      "count": 211,
      "max": [
        0.99999988079071045,
        1,
        1
      ],
      "min": [
        -0.99999988079071045,
        -1,
        -1
      ],
      "type": "VEC3"
    },
    {
      "bufferView": 3,
      "byteOffset": 4608,
      "componentType": 5126,
      "count": 211,
      "max": [
        0.9998665452003479,
        1,
        1,
        1
      ],
      "min": [
        -0.9998665452003479,
        -1,
        -0.96781271696090698,
        -1
      ],
      "type": "VEC4"
    },
    {
      "bufferView": 1,
      "byteOffset": 2304,
      "componentType": 5126,
      "count": 211,
      "max": [
        0.99184799194335938,
        0.9891819953918457
      ],
      "min": [
        0.0081529999151825905,
        0.0081519996747374535
      ],
      "type": "VEC2"
    },
    {
      "bufferView": 0,
      "byteOffset": 1956,
      "componentType": 5125,
      "count": 345,
      "max": [
        210
      ],
      "min": [
        0
      ],
      "type": "SCALAR"
    },
    {
      "bufferView": 2,
      "byteOffset": 11976,
      "componentType": 5126,
      "count": 112,
      "max": [
        -5.5640802383422852,
        2.2081170082092285,
        7.1263070106506348
      ],
      "min": [
        -15.354169845581055,
        -19.102291107177734,
        -2.8676979541778564
      ],
      "type": "VEC3"
    },
    {
      "bufferView": 2,
      "byteOffset": 13320,
      "componentType": 5126,
      "count": 112,
      "max": [
        0.99994826316833496,
        0.99972575902938843,
        1
      ],
      "min": [
        -0.99994826316833496,
        -0.9997820258140564,
        -1
      ],
      "type": "VEC3"
    },
    {
      "bufferView": 3,
      "byteOffset": 7984,
      "componentType": 5126,
      "count": 112,
      "max": [
        1,
        0.99389654397964478,
        0.99994826316833496,
        -1
      ],
      "min": [
        -1,
        -1,
        -0.11219096928834915,
        -1
      ],
      "type": "VEC4"
    },
    {
      "bufferView": 1,
      "byteOffset": 3992,
      "componentType": 5126,
      "count": 112,
      "max": [
        0.99098199605941772,
        0.99111002683639526
      ],
      "min": [
        0.0081529999151825905,
        0.0081519996747374535
      ],
      "type": "VEC2"
    },
    {
      "bufferView": 0,
      "byteOffset": 3336,
      "componentType": 5125,
      "count": 180,
      "max": [
        111
      ],
      "min": [
        0
      ],
      "type": "SCALAR"
    },
    {
      "bufferView": 2,
      "byteOffset": 14664,
      "componentType": 5126,
      "count": 170,
      "max": [
        -0.064305998384952545,
        -9.8158435821533203,
        10.088312149047852
      ],
      "min": [
        -6.3739471435546875,
        -14.903745651245117,
        -2.86769700050354
      ],
      "type": "VEC3"
    },
    {
      "bufferView": 2,
      "byteOffset": 16704,
      "componentType": 5126,
      "count": 170,
      "max": [
        0.99995535612106323,
        0.9998130202293396,
        0.99999874830245972
      ],
      "min": [
        -0.99872547388076782,
        -0.9998130202293396,
        -1
      ],
      "type": "VEC3"
    },
    {
      "bufferView": 3,
      "byteOffset": 9776,
      "componentType": 5126,
      "count": 170,
      "max": [
        0.99999880790710449,
        1,
        0.99995529651641846,
        -1
      ],
      "min": [
        -0.99939125776290894,
        -1,
        -0.99969321489334106,
        -1
      ],
      "type": "VEC4"
    },
    {
      "bufferView": 1,
      "byteOffset": 4888,
      "componentType": 5126,
      "count": 170,
      "max": [
        0.98945498466491699,
        0.98822301626205444
      ],
      "min": [
        0.10368900001049042,
        0.0081529999151825905
      ],
      "type": "VEC2"
    },
    {
      "bufferView": 0,
      "byteOffset": 4056,
      "componentType": 5125,
      "count": 258,
      "max": [
        169
      ],
      "min": [
        0
      ],
      "type": "SCALAR"
    },
    {
      "bufferView": 2,
      "byteOffset": 18744,
      "componentType": 5126,
      "count": 116,
      "max": [
        -1.176332950592041,
        -2.2882959842681885,
        9.5213298797607422
      ],
      "min": [
        -6.2904238700866699,
        -7.2265110015869141,
        -2.8676979541778564
      ],
      "type": "VEC3"
    },
    {
      "bufferView": 2,
      "byteOffset": 20136,
      "componentType": 5126,
      "count": 116,
      "max": [
        0.99997466802597046,
        0.99997025728225708,
        1
      ],
      "min": [
        -0.99939537048339844,
        -0.99997013807296753,
        -1
      ],
      "type": "VEC3"
    },
    {
      "bufferView": 3,
      "byteOffset": 12496,
      "componentType": 5126,
      "count": 116,
      "max": [
        1,
        1,
        0.99248141050338745,
        -1
      ],
      "min": [
        -1,
        -1,
        -0.98331362009048462,
        -1
      ],
      "type": "VEC4"
    },
    {
      "bufferView": 1,
      "byteOffset": 6248,
      "componentType": 5126,
      "count": 116,
      "max": [
        0.96603697538375854,
        0.98479002714157104
      ],
      "min": [
        0.0081529999151825905,
        0.23329499363899231
      ],
      "type": "VEC2"
    },
    {
      "bufferView": 0,
      "byteOffset": 5088,
      "componentType": 5125,
      "count": 192,
      "max": [
        115
      ],
      "min": [
        0
      ],
      "type": "SCALAR"
    },
    {
      "bufferView": 2,
      "byteOffset": 21528,
      "componentType": 5126,
      "count": 96,
      "max": [
        -8.2541713714599609,
        6.1402077674865723,
        2.582503080368042
      ],
      "min": [
        -12.75078296661377,
        1.7132129669189453,
        -2.8677020072937012
      ],
      "type": "VEC3"
    },
    {
      "bufferView": 2,
      "byteOffset": 22680,
      "componentType": 5126,
      "count": 96,
      "max": [
        0.99939537048339844,
        0.99947810173034668,
        1
      ],
      "min": [
        -0.99939537048339844,
        -0.99947798252105713,
        -1
      ],
      "type": "VEC3"
    },
    {
      "bufferView": 3,
      "byteOffset": 14352,
      "componentType": 5126,
      "count": 96,
      "max": [
        0.99945026636123657,
        1,
        0.95843416452407837,
        -1
      ],
      "min": [
        -0.99945026636123657,
        -1,
        -0.015364738181233406,
        -1
      ],
      "type": "VEC4"
    },
    {
      "bufferView": 1,
      "byteOffset": 7176,
      "componentType": 5126,
      "count": 96,
      "max": [
        0.99184697866439819,
        0.98356598615646362
      ],
      "min": [
        0.0081529999151825905,
        0.0081529999151825905
      ],
      "type": "VEC2"
    },
    {
      "bufferView": 0,
      "byteOffset": 5856,
      "componentType": 5125,
      "count": 156,
      "max": [
        95
      ],
      "min": [
        0
      ],
      "type": "SCALAR"
    }
  ],
  "asset": {
    "extras": {
      "author": "Leon_dp (https://sketchfab.com/leondp)",
      "license": "CC-BY-4.0 (http://creativecommons.org/licenses/by/4.0/)",
      "source": "https://sketchfab.com/3d-models/ultra-low-poly-wooden-table-chairs-set-9113595a84784f02959d9f2d09ed74d1",
      "title": "Ultra low poly wooden table & chairs set"
    },
    "generator": "Sketchfab-9.99.1",
    "version": "2.0"
  },
  "bufferViews": [
    {
      "buffer": 0,
      "byteLength": 6480,
      "byteOffset": 0,
      "name": "floatBufferViews",
      "target": 34963
    },
    {
      "buffer": 0,
      "byteLength": 7944,
      "byteOffset": 6480,
      "byteStride": 8,
      "name": "floatBufferViews",
      "target": 34962
    },
    {
      "buffer": 0,
      "byteLength": 23832,
      "byteOffset": 14424,
      "byteStride": 12,
      "name": "floatBufferViews",
      "target": 34962
    },
    {
      "buffer": 0,
      "byteLength": 15888,
      "byteOffset": 38256,
      "byteStride": 16,
      "name": "floatBufferViews",
      "target": 34962
    }
  ],
  "buffers": [
    {
      "byteLength": 54144,
      "uri": "scene.bin"
    }
  ],
  "images": [
    {
      "uri": "textures/1001_baseColor.jpeg"
    },
    {
      "uri": "textures/1001_metallicRoughness.png"
    },
    {
      "uri": "textures/1001_normal.png"
    }
  ],
  "materials": [
    {
      "doubleSided": true,
      "name": "1001",
      "normalTexture": {
        "index": 2,
        "scale": 1,
        "texCoord": 0
      },
      "occlusionTexture": {
        "index": 1,
        "strength": 1,
        "texCoord": 0
      },
      "pbrMetallicRoughness": {
        "baseColorFactor": [
          1,
          1,
          1,
          1
        ],
        "baseColorTexture": {
          "index": 0,
          "texCoord": 0
        },
        "metallicFactor": 1,
        "metallicRoughnessTexture": {
          "index": 1,
          "texCoord": 0
        },
        "roughnessFactor": 1
      }
    }
  ],
  "meshes": [
    {
      "name": "defaultMaterial",
      "primitives": [
        {
          "attributes": {
            "NORMAL": 1,
            "POSITION": 0,
            "TANGENT": 2,
            "TEXCOORD_0": 3
          },
          "indices": 4,
          "material": 0,
          "mode": 4
        }
      ]
    },
    {
      "name": "defaultMaterial",
      "primitives": [
        {
          "attributes": {
            "NORMAL": 6,
            "POSITION": 5,
            "TANGENT": 7,
            "TEXCOORD_0": 8
          },
          "indices": 9,
          "material": 0,
          "mode": 4
        }
      ]
    },
    {
      "name": "defaultMaterial",
      "primitives": [
        {
          "attributes": {
            "NORMAL": 11,
            "POSITION": 10,
            "TANGENT": 12,
            "TEXCOORD_0": 13
          },
          "indices": 14,
          "material": 0,
          "mode": 4
        }
      ]
    },
    {
      "name": "defaultMaterial",
      "primitives": [
        {
          "attributes": {
            "NORMAL": 16,
            "POSITION": 15,
            "TANGENT": 17,
            "TEXCOORD_0": 18
          },
          "indices": 19,
          "material": 0,
          "mode": 4
        }
      ]
    },
    {
      "name": "defaultMaterial",
      "primitives": [
        {
          "attributes": {
            "NORMAL": 21,
            "POSITION": 20,
            "TANGENT": 22,
            "TEXCOORD_0": 23
          },
          "indices": 24,
          "material": 0,
          "mode": 4
        }
      ]
    },
    {
      "name": "defaultMaterial",
      "primitives": [
        {
          "attributes": {
            "NORMAL": 26,
            "POSITION": 25,
            "TANGENT": 27,
            "TEXCOORD_0": 28
          },
          "indices": 29,
          "material": 0,
          "mode": 4
        }
      ]
    },
    {
      "name": "defaultMaterial",
      "primitives": [
        {
          "attributes": {
            "NORMAL": 31,
            "POSITION": 30,
            "TANGENT": 32,
            "TEXCOORD_0": 33
          },
          "indices": 34,
          "material": 0,
          "mode": 4
        }
      ]
    }
  ],
  "nodes": [
    {
      "children": [
        1
      ],
      "name": "RootNode (gltf orientation matrix)",
      "rotation": [
        -0.70710678118654746,
        -0,
        -0,
        0.70710678118654757
      ]
    },
    {
      "children": [
        2
      ],
      "matrix": [
        1,
        0,
        0,
        0,
        0,
        1,
        0,
        0,
        0,
        0,
        1,
        0,
        0,
        -2.3823609808459878e-05,
        7.438443958562857e-07,
        1
      ],
      "name": "RootNode (model correction matrix)"
    },
    {
      "children": [
        3,
        5,
        7,
        9,
        11,
        13,
        15
      ],
      "matrix": [
        1,
        0,
        0,
        0,
        0,
        -4.3711390063094768e-08,
        0.999999999999999,
        0,
        0,
        -0.999999999999999,
        -4.3711390063094768e-08,
        0,
        0,
        0,
        0,
        1
      ],
      "name": "Collada visual scene group"
    },
    {
      "children": [
        4
      ],
      "matrix": [
        100,
        0,
        0,
        0,
        0,
        0,
        -100,
        0,
        0,
        100,
        0,
        0,
        0,
        0,
        0,
        1
      ],
      "name": "Ultra"
    },
    {
      "mesh": 0,
      "name": "defaultMaterial"
    },
    {
      "children": [
        6
      ],
      "matrix": [
        100,
        0,
        0,
        0,
        0,
        0,
        -100,
        0,
        0,
        100,
        0,
        0,
        0,
        0,
        0,
        1
      ],
      "name": "Ultra"
    },
    {
      "mesh": 1,
      "name": "defaultMaterial"
    },
    {
      "children": [
        8
      ],
      "matrix": [
        100,
        0,
        0,
        0,
        0,
        0,
        -100,
        0,
        0,
        100,
        0,
        0,
        0,
        0,
        0,
        1
      ],
      "name": "Ultra"
    },
    {
      "mesh": 2,
      "name": "defaultMaterial"
    },
    {
      "children": [
        10
      ],
      "matrix": [
        100,
        0,
        0,
        0,
        0,
        0,
        -100,
        0,
        0,
        100,
        0,
        0,
        0,
        0,
        0,
        1
      ],
      "name": "Ultra"
    },
    {
      "mesh": 3,
      "name": "defaultMaterial"
    },
    {
      "children": [
        12
      ],
      "matrix": [
        100,
        0,
        0,
        0,
        0,
        0,
        -100,
        0,
        0,
        100,
        0,
        0,
        0,
        0,
        0,
        1
      ],
      "name": "Ultra"
    },
    {
      "mesh": 4,
      "name": "defaultMaterial"
    },
    {
      "children": [
        14
      ],
      "matrix": [
        100,
        0,
        0,
        0,
        0,
        0,
        -100,
        0,
        0,
        100,
        0,
        0,
        0,
        0,
        0,
        1
      ],
      "name": "Ultra"
    },
    {
      "mesh": 5,
      "name": "defaultMaterial"
    },
    {
      "children": [
        16
      ],
      "matrix": [
        100,
        0,
        0,
        0,
        0,
        0,
        -100,
        0,
        0,
        100,
        0,
        0,
        0,
        0,
        0,
        1
      ],
      "name": "Ultra"
    },
    {
      "mesh": 6,
      "name": "defaultMaterial"
    }
  ],
  "samplers": [
    {
      "magFilter": 9729,
      "minFilter": 9987,
      "wrapS": 10497,
      "wrapT": 10497
    }
  ],
  "scene": 0,
  "scenes": [
    {
      "name": "OSG_Scene",
      "nodes": [
        0
      ]
    }
  ],
  "textures": [
    {
      "sampler": 0,
      "source": 0
    },
    {
      "sampler": 0,
      "source": 1
    },
    {
      "sampler": 0,
      "source": 2
    }
  ]
}

